# xmcd CD database file
#
# Track frame offsets:
#	150
#	24649
#	37482
#	57198
#	76526
#	97041
#	115273
#	137181
#	162840
#	182612
#	200835
#	216518
#	230973
#	254289
#
# Disc length: 3639 seconds
#
# Revision: 0
# Processed by: cddbd v1.5.2PL0 Copyright (c) Steve Scherf et al.
# Submitted via: CDex 1.70beta2
#
DISCID=d10e350e
DTITLE=Various Artist - Swedish Beauties vol.1
DYEAR=1900
DGENRE=Jazz
TTITLE0=Dindi - Margareta Bengtson
TTITLE1=Walk between the raindrops - Suss von Ahn
TTITLE2=Sugar in my coffee - Myrra
TTITLE3=A nightingale sang in Berkley square - Anna Sise
TTITLE4=Seagulls - Lisa
TTITLE5=So many stars - Lovisa
TTITLE6=Georgia on my mind - Suss von Ahn
TTITLE7=Corcovado - Margareta Bengtson
TTITLE8=I fall in love too easily - Lovisa
TTITLE9=At seventeen - Myrra
TTITLE10=For once in my life - Suss von Ahn
TTITLE11=Meditation - Lovisa
TTITLE12=The neaness of you - Lisa
TTITLE13=The second time arround - Anna Sise
EXTD=
EXTT0=
EXTT1=
EXTT2=
EXTT3=
EXTT4=
EXTT5=
EXTT6=
EXTT7=
EXTT8=
EXTT9=
EXTT10=
EXTT11=
EXTT12=
EXTT13=
PLAYORDER=
